<?xml version="1.0" encoding="UTF-8" standalone="no"?>
<!-- Created with Inkscape (http://www.inkscape.org/) -->

<svg
   version="1.1"
   id="svg1"
   width="181.33333"
   height="177.33333"
   viewBox="0 0 181.33333 177.33333"
   sodipodi:docname="aries.png"
   xmlns:inkscape="http://www.inkscape.org/namespaces/inkscape"
   xmlns:sodipodi="http://sodipodi.sourceforge.net/DTD/sodipodi-0.dtd"
   xmlns="http://www.w3.org/2000/svg"
   xmlns:svg="http://www.w3.org/2000/svg">
  <defs
     id="defs1" />
  <sodipodi:namedview
     id="namedview1"
     pagecolor="#ffffff"
     bordercolor="#000000"
     borderopacity="0.25"
     inkscape:showpageshadow="2"
     inkscape:pageopacity="0.0"
     inkscape:pagecheckerboard="0"
     inkscape:deskcolor="#d1d1d1">
    <inkscape:page
       x="0"
       y="0"
       width="181.33333"
       height="177.33333"
       id="page2"
       margin="0"
       bleed="0" />
  </sodipodi:namedview>
  <g
     inkscape:groupmode="layer"
     inkscape:label="Image"
     id="g1">
    <path
       style="fill:#0e0e0e;stroke:none"
       d="m 95.541179,73.605862 v 1.333334 L 80.43007,66.272529 64.874513,65.605863 70.207846,76.272529 65.096737,87.161414 64.874513,109.60586 c 7.11616,-0.8372 4.842972,-9.59025 7.777776,-14.666665 2.065984,-3.573588 7.33283,-4.982218 10.88889,-6.666666 l -6.666666,5.333333 4,15.999998 5.333333,-1.33333 -2.666667,-21.333335 1.333334,-1.333333 c 10.766397,6.799825 9.333333,11.550435 9.333333,23.999998 8.586204,-0.92824 5.264658,-10.32442 9.777784,-15.777769 2.63064,-3.178711 7.25851,-3.925191 10.22222,-6.888896 8.16679,-8.166798 7.37731,-24.720895 -4,-29.333332 5.41902,-3.954417 5.33333,-6.908946 5.33333,-13.333333 -7.7307,0 -21.360261,-2.617543 -28.000001,1.777781 -12.937138,8.564016 -6.230799,26.432067 8,27.555551 M 106.20785,46.939197 v 2.666666 l -2.66667,-2.666666 h 2.66667 M 91.541179,49.828082 C 103.75941,46.042153 110.56373,64.221728 98.207845,68.05031 86.358989,71.721778 80.736395,53.176043 91.541179,49.828082 m 1.333333,3.777781 c -4.979736,7.008524 1.648916,14.421386 6.666667,6.666667 l -6.666667,-6.666667 m 25.333328,30.666666 c -5.46059,5.460591 -10.69526,23.958641 1.33334,25.333331 l -1.33334,-25.333331 m -38.666661,52.000001 -2.666666,8 h 6.666666 l -4,-8 m 5.333334,0 v 8 l 2.666666,-2.66667 h 1.333333 l 6.666667,2.66667 v -8 l -5.333333,6.66666 1.333333,-5.33333 -6.666666,-1.33333 m 11.999999,0 c 0,4.71562 -0.554199,7.32412 3.999998,9.33333 l -2.666665,-4 h 2.666665 l -2.666665,-1.33333 v -2.66667 h 2.666665 l -3.999998,-1.33333 m 5.333338,1.33333 v 2.66667 l 4,1.33333 v 1.33333 l -4,1.33334 4,1.33333 1.33333,-8 h -5.33333 m -13.777785,0.88889 -0.444438,0.88889 0.444438,-0.88889 m -7.999995,1.33333 -0.444448,0.8889 z"
       id="path1" />
  </g>
</svg>
